<svg xmlns="http://www.w3.org/2000/svg" width="497" height="497" viewBox="0 0 497 497">
<rect width="497" height="497" fill="#c0c0c0"/>
<rect x="1" y="1" width="30" height="30" fill="#e0e0e0"/>
<rect x="32" y="1" width="30" height="30" fill="#e0e0e0"/>
<rect x="63" y="1" width="30" height="30" fill="#e0e0e0"/>
<rect x="94" y="1" width="30" height="30" fill="#e0e0e0"/>
<rect x="125" y="1" width="30" height="30" fill="#e0e0e0"/>
<rect x="156" y="1" width="30" height="30" fill="#e0e0e0"/>
<rect x="187" y="1" width="30" height="30" fill="#e0e0e0"/>
<rect x="218" y="1" width="30" height="30" fill="#e0e0e0"/>
<rect x="249" y="1" width="30" height="30" fill="#e0e0e0"/>
<rect x="280" y="1" width="30" height="30" fill="#e0e0e0"/>
<rect x="311" y="1" width="30" height="30" fill="#e0e0e0"/>
<rect x="342" y="1" width="30" height="30" fill="#e0e0e0"/>
<rect x="373" y="1" width="30" height="30" fill="#e0e0e0"/>
<rect x="404" y="1" width="30" height="30" fill="#e0e0e0"/>
<rect x="435" y="1" width="30" height="30" fill="#e0e0e0"/>
<rect x="466" y="1" width="30" height="30" fill="#e0e0e0"/>
<rect x="1" y="32" width="30" height="30" fill="#e0e0e0"/>
<rect x="32" y="32" width="30" height="30" fill="#e0e0e0"/>
<rect x="63" y="32" width="30" height="30" fill="#e0e0e0"/>
<rect x="94" y="32" width="30" height="30" fill="#e0e0e0"/>
<rect x="125" y="32" width="30" height="30" fill="#e0e0e0"/>
<rect x="156" y="32" width="30" height="30" fill="#e0e0e0"/>
<rect x="187" y="32" width="30" height="30" fill="#e0e0e0"/>
<rect x="218" y="32" width="30" height="30" fill="#e0e0e0"/>
<rect x="249" y="32" width="30" height="30" fill="#e0e0e0"/>
<rect x="280" y="32" width="30" height="30" fill="#e0e0e0"/>
<rect x="311" y="32" width="30" height="30" fill="#e0e0e0"/>
<rect x="342" y="32" width="30" height="30" fill="#e0e0e0"/>
<rect x="373" y="32" width="30" height="30" fill="#e0e0e0"/>
<rect x="404" y="32" width="30" height="30" fill="#e0e0e0"/>
<rect x="435" y="32" width="30" height="30" fill="#e0e0e0"/>
<rect x="466" y="32" width="30" height="30" fill="#e0e0e0"/>
<rect x="1" y="63" width="30" height="30" fill="#e0e0e0"/>
<rect x="32" y="63" width="30" height="30" fill="#e0e0e0"/>
<rect x="63" y="63" width="30" height="30" fill="#e0e0e0"/>
<rect x="94" y="63" width="30" height="30" fill="#e0e0e0"/>
<rect x="125" y="63" width="30" height="30" fill="#e0e0e0"/>
<rect x="156" y="63" width="30" height="30" fill="#e0e0e0"/>
<rect x="187" y="63" width="30" height="30" fill="#e74c3c"/>
<rect x="218" y="63" width="30" height="30" fill="#e0e0e0"/>
<rect x="249" y="63" width="30" height="30" fill="#e0e0e0"/>
<rect x="280" y="63" width="30" height="30" fill="#e0e0e0"/>
<rect x="311" y="63" width="30" height="30" fill="#e0e0e0"/>
<rect x="342" y="63" width="30" height="30" fill="#e0e0e0"/>
<rect x="373" y="63" width="30" height="30" fill="#e0e0e0"/>
<rect x="404" y="63" width="30" height="30" fill="#e0e0e0"/>
<rect x="435" y="63" width="30" height="30" fill="#e0e0e0"/>
<rect x="466" y="63" width="30" height="30" fill="#e0e0e0"/>
<rect x="1" y="94" width="30" height="30" fill="#e0e0e0"/>
<rect x="32" y="94" width="30" height="30" fill="#e0e0e0"/>
<rect x="63" y="94" width="30" height="30" fill="#e0e0e0"/>
<rect x="94" y="94" width="30" height="30" fill="#e0e0e0"/>
<rect x="125" y="94" width="30" height="30" fill="#e0e0e0"/>
<rect x="156" y="94" width="30" height="30" fill="#e0e0e0"/>
<rect x="187" y="94" width="30" height="30" fill="#e0e0e0"/>
<rect x="218" y="94" width="30" height="30" fill="#e0e0e0"/>
<rect x="249" y="94" width="30" height="30" fill="#e0e0e0"/>
<rect x="280" y="94" width="30" height="30" fill="#e0e0e0"/>
<rect x="311" y="94" width="30" height="30" fill="#e0e0e0"/>
<rect x="342" y="94" width="30" height="30" fill="#e0e0e0"/>
<rect x="373" y="94" width="30" height="30" fill="#e0e0e0"/>
<rect x="404" y="94" width="30" height="30" fill="#e0e0e0"/>
<rect x="435" y="94" width="30" height="30" fill="#e0e0e0"/>
<rect x="466" y="94" width="30" height="30" fill="#e0e0e0"/>
<rect x="1" y="125" width="30" height="30" fill="#e0e0e0"/>
<rect x="32" y="125" width="30" height="30" fill="#e0e0e0"/>
<rect x="63" y="125" width="30" height="30" fill="#e0e0e0"/>
<rect x="94" y="125" width="30" height="30" fill="#e0e0e0"/>
<rect x="125" y="125" width="30" height="30" fill="#e0e0e0"/>
<rect x="156" y="125" width="30" height="30" fill="#e0e0e0"/>
<rect x="187" y="125" width="30" height="30" fill="#e0e0e0"/>
<rect x="218" y="125" width="30" height="30" fill="#e0e0e0"/>
<rect x="249" y="125" width="30" height="30" fill="#e0e0e0"/>
<rect x="280" y="125" width="30" height="30" fill="#e0e0e0"/>
<rect x="311" y="125" width="30" height="30" fill="#e0e0e0"/>
<rect x="342" y="125" width="30" height="30" fill="#e0e0e0"/>
<rect x="373" y="125" width="30" height="30" fill="#e0e0e0"/>
<rect x="404" y="125" width="30" height="30" fill="#e0e0e0"/>
<rect x="435" y="125" width="30" height="30" fill="#e0e0e0"/>
<rect x="466" y="125" width="30" height="30" fill="#e0e0e0"/>
<rect x="1" y="156" width="30" height="30" fill="#e0e0e0"/>
<rect x="32" y="156" width="30" height="30" fill="#e0e0e0"/>
<rect x="63" y="156" width="30" height="30" fill="#e0e0e0"/>
<rect x="94" y="156" width="30" height="30" fill="#e0e0e0"/>
<rect x="125" y="156" width="30" height="30" fill="#e0e0e0"/>
<rect x="156" y="156" width="30" height="30" fill="#e0e0e0"/>
<rect x="187" y="156" width="30" height="30" fill="#e0e0e0"/>
<rect x="218" y="156" width="30" height="30" fill="#e0e0e0"/>
<rect x="249" y="156" width="30" height="30" fill="#e0e0e0"/>
<rect x="280" y="156" width="30" height="30" fill="#e0e0e0"/>
<rect x="311" y="156" width="30" height="30" fill="#e0e0e0"/>
<rect x="342" y="156" width="30" height="30" fill="#e0e0e0"/>
<rect x="373" y="156" width="30" height="30" fill="#e0e0e0"/>
<rect x="404" y="156" width="30" height="30" fill="#e0e0e0"/>
<rect x="435" y="156" width="30" height="30" fill="#e0e0e0"/>
<rect x="466" y="156" width="30" height="30" fill="#e0e0e0"/>
<rect x="1" y="187" width="30" height="30" fill="#e0e0e0"/>
<rect x="32" y="187" width="30" height="30" fill="#e0e0e0"/>
<rect x="63" y="187" width="30" height="30" fill="#e0e0e0"/>
<rect x="94" y="187" width="30" height="30" fill="#e0e0e0"/>
<rect x="125" y="187" width="30" height="30" fill="#e0e0e0"/>
<rect x="156" y="187" width="30" height="30" fill="#e0e0e0"/>
<rect x="187" y="187" width="30" height="30" fill="#e0e0e0"/>
<rect x="218" y="187" width="30" height="30" fill="#e0e0e0"/>
<rect x="249" y="187" width="30" height="30" fill="#e0e0e0"/>
<rect x="280" y="187" width="30" height="30" fill="#e0e0e0"/>
<rect x="311" y="187" width="30" height="30" fill="#e0e0e0"/>
<rect x="342" y="187" width="30" height="30" fill="#e0e0e0"/>
<rect x="373" y="187" width="30" height="30" fill="#e0e0e0"/>
<rect x="404" y="187" width="30" height="30" fill="#e0e0e0"/>
<rect x="435" y="187" width="30" height="30" fill="#e0e0e0"/>
<rect x="466" y="187" width="30" height="30" fill="#e0e0e0"/>
<rect x="1" y="218" width="30" height="30" fill="#e0e0e0"/>
<rect x="32" y="218" width="30" height="30" fill="#e0e0e0"/>
<rect x="63" y="218" width="30" height="30" fill="#e0e0e0"/>
<rect x="94" y="218" width="30" height="30" fill="#e0e0e0"/>
<rect x="125" y="218" width="30" height="30" fill="#e0e0e0"/>
<rect x="156" y="218" width="30" height="30" fill="#e0e0e0"/>
<rect x="187" y="218" width="30" height="30" fill="#e0e0e0"/>
<rect x="218" y="218" width="30" height="30" fill="#e0e0e0"/>
<rect x="249" y="218" width="30" height="30" fill="#e0e0e0"/>
<rect x="280" y="218" width="30" height="30" fill="#e0e0e0"/>
<rect x="311" y="218" width="30" height="30" fill="#e0e0e0"/>
<rect x="342" y="218" width="30" height="30" fill="#e0e0e0"/>
<rect x="373" y="218" width="30" height="30" fill="#e0e0e0"/>
<rect x="404" y="218" width="30" height="30" fill="#e0e0e0"/>
<rect x="435" y="218" width="30" height="30" fill="#e0e0e0"/>
<rect x="466" y="218" width="30" height="30" fill="#e0e0e0"/>
<rect x="1" y="249" width="30" height="30" fill="#e0e0e0"/>
<rect x="32" y="249" width="30" height="30" fill="#e0e0e0"/>
<rect x="63" y="249" width="30" height="30" fill="#e0e0e0"/>
<rect x="94" y="249" width="30" height="30" fill="#e0e0e0"/>
<rect x="125" y="249" width="30" height="30" fill="#e0e0e0"/>
<rect x="156" y="249" width="30" height="30" fill="#e0e0e0"/>
<rect x="187" y="249" width="30" height="30" fill="#e0e0e0"/>
<rect x="218" y="249" width="30" height="30" fill="#e0e0e0"/>
<rect x="249" y="249" width="30" height="30" fill="#e0e0e0"/>
<rect x="280" y="249" width="30" height="30" fill="#e0e0e0"/>
<rect x="311" y="249" width="30" height="30" fill="#e0e0e0"/>
<rect x="342" y="249" width="30" height="30" fill="#e0e0e0"/>
<rect x="373" y="249" width="30" height="30" fill="#e0e0e0"/>
<rect x="404" y="249" width="30" height="30" fill="#e0e0e0"/>
<rect x="435" y="249" width="30" height="30" fill="#e0e0e0"/>
<rect x="466" y="249" width="30" height="30" fill="#e0e0e0"/>
<rect x="1" y="280" width="30" height="30" fill="#e0e0e0"/>
<rect x="32" y="280" width="30" height="30" fill="#e0e0e0"/>
<rect x="63" y="280" width="30" height="30" fill="#e0e0e0"/>
<rect x="94" y="280" width="30" height="30" fill="#e0e0e0"/>
<rect x="125" y="280" width="30" height="30" fill="#e0e0e0"/>
<rect x="156" y="280" width="30" height="30" fill="#e0e0e0"/>
<rect x="187" y="280" width="30" height="30" fill="#e0e0e0"/>
<rect x="218" y="280" width="30" height="30" fill="#e0e0e0"/>
<rect x="249" y="280" width="30" height="30" fill="#e0e0e0"/>
<rect x="280" y="280" width="30" height="30" fill="#e0e0e0"/>
<rect x="311" y="280" width="30" height="30" fill="#e0e0e0"/>
<rect x="342" y="280" width="30" height="30" fill="#e0e0e0"/>
<rect x="373" y="280" width="30" height="30" fill="#e0e0e0"/>
<rect x="404" y="280" width="30" height="30" fill="#e0e0e0"/>
<rect x="435" y="280" width="30" height="30" fill="#e0e0e0"/>
<rect x="466" y="280" width="30" height="30" fill="#e0e0e0"/>
<rect x="1" y="311" width="30" height="30" fill="#e0e0e0"/>
<rect x="32" y="311" width="30" height="30" fill="#e0e0e0"/>
<rect x="63" y="311" width="30" height="30" fill="#e0e0e0"/>
<rect x="94" y="311" width="30" height="30" fill="#e0e0e0"/>
<rect x="125" y="311" width="30" height="30" fill="#e0e0e0"/>
<rect x="156" y="311" width="30" height="30" fill="#e0e0e0"/>
<rect x="187" y="311" width="30" height="30" fill="#e0e0e0"/>
<rect x="218" y="311" width="30" height="30" fill="#e0e0e0"/>
<rect x="249" y="311" width="30" height="30" fill="#e0e0e0"/>
<rect x="280" y="311" width="30" height="30" fill="#e0e0e0"/>
<rect x="311" y="311" width="30" height="30" fill="#e0e0e0"/>
<rect x="342" y="311" width="30" height="30" fill="#e0e0e0"/>
<rect x="373" y="311" width="30" height="30" fill="#e0e0e0"/>
<rect x="404" y="311" width="30" height="30" fill="#e0e0e0"/>
<rect x="435" y="311" width="30" height="30" fill="#e0e0e0"/>
<rect x="466" y="311" width="30" height="30" fill="#e0e0e0"/>
<rect x="1" y="342" width="30" height="30" fill="#e0e0e0"/>
<rect x="32" y="342" width="30" height="30" fill="#e0e0e0"/>
<rect x="63" y="342" width="30" height="30" fill="#e0e0e0"/>
<rect x="94" y="342" width="30" height="30" fill="#e0e0e0"/>
<rect x="125" y="342" width="30" height="30" fill="#e0e0e0"/>
<rect x="156" y="342" width="30" height="30" fill="#e0e0e0"/>
<rect x="187" y="342" width="30" height="30" fill="#e0e0e0"/>
<rect x="218" y="342" width="30" height="30" fill="#e0e0e0"/>
<rect x="249" y="342" width="30" height="30" fill="#e0e0e0"/>
<rect x="280" y="342" width="30" height="30" fill="#e0e0e0"/>
<rect x="311" y="342" width="30" height="30" fill="#e0e0e0"/>
<rect x="342" y="342" width="30" height="30" fill="#e0e0e0"/>
<rect x="373" y="342" width="30" height="30" fill="#e0e0e0"/>
<rect x="404" y="342" width="30" height="30" fill="#e0e0e0"/>
<rect x="435" y="342" width="30" height="30" fill="#e0e0e0"/>
<rect x="466" y="342" width="30" height="30" fill="#e0e0e0"/>
<rect x="1" y="373" width="30" height="30" fill="#e0e0e0"/>
<rect x="32" y="373" width="30" height="30" fill="#e0e0e0"/>
<rect x="63" y="373" width="30" height="30" fill="#e0e0e0"/>
<rect x="94" y="373" width="30" height="30" fill="#e0e0e0"/>
<rect x="125" y="373" width="30" height="30" fill="#e0e0e0"/>
<rect x="156" y="373" width="30" height="30" fill="#e0e0e0"/>
<rect x="187" y="373" width="30" height="30" fill="#e0e0e0"/>
<rect x="218" y="373" width="30" height="30" fill="#e0e0e0"/>
<rect x="249" y="373" width="30" height="30" fill="#e0e0e0"/>
<rect x="280" y="373" width="30" height="30" fill="#e0e0e0"/>
<rect x="311" y="373" width="30" height="30" fill="#e0e0e0"/>
<rect x="342" y="373" width="30" height="30" fill="#e0e0e0"/>
<rect x="373" y="373" width="30" height="30" fill="#e0e0e0"/>
<rect x="404" y="373" width="30" height="30" fill="#e0e0e0"/>
<rect x="435" y="373" width="30" height="30" fill="#e0e0e0"/>
<rect x="466" y="373" width="30" height="30" fill="#e0e0e0"/>
<rect x="1" y="404" width="30" height="30" fill="#e0e0e0"/>
<rect x="32" y="404" width="30" height="30" fill="#e0e0e0"/>
<rect x="63" y="404" width="30" height="30" fill="#e0e0e0"/>
<rect x="94" y="404" width="30" height="30" fill="#e0e0e0"/>
<rect x="125" y="404" width="30" height="30" fill="#e0e0e0"/>
<rect x="156" y="404" width="30" height="30" fill="#e0e0e0"/>
<rect x="187" y="404" width="30" height="30" fill="#e0e0e0"/>
<rect x="218" y="404" width="30" height="30" fill="#e0e0e0"/>
<rect x="249" y="404" width="30" height="30" fill="#e0e0e0"/>
<rect x="280" y="404" width="30" height="30" fill="#e0e0e0"/>
<rect x="311" y="404" width="30" height="30" fill="#e0e0e0"/>
<rect x="342" y="404" width="30" height="30" fill="#e0e0e0"/>
<rect x="373" y="404" width="30" height="30" fill="#e0e0e0"/>
<rect x="404" y="404" width="30" height="30" fill="#e0e0e0"/>
<rect x="435" y="404" width="30" height="30" fill="#e0e0e0"/>
<rect x="466" y="404" width="30" height="30" fill="#e0e0e0"/>
<rect x="1" y="435" width="30" height="30" fill="#e0e0e0"/>
<rect x="32" y="435" width="30" height="30" fill="#e0e0e0"/>
<rect x="63" y="435" width="30" height="30" fill="#e0e0e0"/>
<rect x="94" y="435" width="30" height="30" fill="#e0e0e0"/>
<rect x="125" y="435" width="30" height="30" fill="#e0e0e0"/>
<rect x="156" y="435" width="30" height="30" fill="#e0e0e0"/>
<rect x="187" y="435" width="30" height="30" fill="#e0e0e0"/>
<rect x="218" y="435" width="30" height="30" fill="#e0e0e0"/>
<rect x="249" y="435" width="30" height="30" fill="#e0e0e0"/>
<rect x="280" y="435" width="30" height="30" fill="#e0e0e0"/>
<rect x="311" y="435" width="30" height="30" fill="#e0e0e0"/>
<rect x="342" y="435" width="30" height="30" fill="#e0e0e0"/>
<rect x="373" y="435" width="30" height="30" fill="#e0e0e0"/>
<rect x="404" y="435" width="30" height="30" fill="#e0e0e0"/>
<rect x="435" y="435" width="30" height="30" fill="#e0e0e0"/>
<rect x="466" y="435" width="30" height="30" fill="#e0e0e0"/>
<rect x="1" y="466" width="30" height="30" fill="#e0e0e0"/>
<rect x="32" y="466" width="30" height="30" fill="#e0e0e0"/>
<rect x="63" y="466" width="30" height="30" fill="#e0e0e0"/>
<rect x="94" y="466" width="30" height="30" fill="#e0e0e0"/>
<rect x="125" y="466" width="30" height="30" fill="#e0e0e0"/>
<rect x="156" y="466" width="30" height="30" fill="#e0e0e0"/>
<rect x="187" y="466" width="30" height="30" fill="#e0e0e0"/>
<rect x="218" y="466" width="30" height="30" fill="#e0e0e0"/>
<rect x="249" y="466" width="30" height="30" fill="#e0e0e0"/>
<rect x="280" y="466" width="30" height="30" fill="#e0e0e0"/>
<rect x="311" y="466" width="30" height="30" fill="#e0e0e0"/>
<rect x="342" y="466" width="30" height="30" fill="#e0e0e0"/>
<rect x="373" y="466" width="30" height="30" fill="#e0e0e0"/>
<rect x="404" y="466" width="30" height="30" fill="#e0e0e0"/>
<rect x="435" y="466" width="30" height="30" fill="#e0e0e0"/>
<rect x="466" y="466" width="30" height="30" fill="#e0e0e0"/>
</svg>